# xmcd
#
# Track frame offsets: 
#        150
#        20174
#        36740
#        66325
#        78857
#        99659
#        116466
#        129776
#        146262
#        159705
#        177278
#        191774
#
# Disc length: 2894 seconds
#
# Revision: 0
# Processed by: cddbd v1.5.2PL0 Copyright (c) Steve Scherf et al.
# Submitted via: ExactAudioCopy v1.3
#
DISCID=a50b4c0c
DTITLE=Freddie Fuller - To Sing Once Again
DYEAR=2018
DGENRE=Country
TTITLE0=To Sing Once Again
TTITLE1=Secret Love
TTITLE2=Quiet Times
TTITLE3=Tiptoe Thru My 2 Lips
TTITLE4=Linda Paloma
TTITLE5=Riding Down The Canyon
TTITLE6=Upper Middle Class
TTITLE7=He Is Near
TTITLE8=Between The Brighter Days
TTITLE9=Rosita
TTITLE10=Big Ole Texas Moon
TTITLE11=Somewhere Over The Rainbow
EXTD=
EXTT0=
EXTT1=
EXTT2=
EXTT3=
EXTT4=
EXTT5=
EXTT6=
EXTT7=
EXTT8=
EXTT9=
EXTT10=
EXTT11=
PLAYORDER=
